<svg width="1440" height="1200" viewBox="0 0 1440 1200" fill="none" xmlns="http://www.w3.org/2000/svg">
  <rect width="1440" height="1200" rx="72" fill="#FFF7EC"/>
  <circle cx="1120" cy="180" r="130" fill="#FFE03D"/>
  <circle cx="1260" cy="338" r="68" fill="#2A2AF4" fill-opacity="0.14"/>
  <circle cx="180" cy="188" r="82" fill="#FF3D00" fill-opacity="0.18"/>
  <rect x="110" y="168" width="770" height="560" rx="42" fill="#1A1A2E"/>
  <rect x="146" y="203" width="698" height="490" rx="28" fill="#F5F7FB"/>
  <rect x="190" y="254" width="232" height="158" rx="28" fill="#2A2AF4"/>
  <rect x="452" y="254" width="346" height="48" rx="18" fill="#E4E7F5"/>
  <rect x="452" y="322" width="268" height="22" rx="11" fill="#CDD4EB"/>
  <rect x="452" y="362" width="300" height="22" rx="11" fill="#CDD4EB"/>
  <rect x="190" y="446" width="608" height="188" rx="30" fill="white"/>
  <rect x="214" y="478" width="152" height="112" rx="24" fill="#FFF0EB"/>
  <rect x="390" y="478" width="188" height="20" rx="10" fill="#D5DCEF"/>
  <rect x="390" y="514" width="164" height="20" rx="10" fill="#D5DCEF"/>
  <rect x="390" y="550" width="218" height="20" rx="10" fill="#D5DCEF"/>
  <rect x="1000" y="274" width="264" height="272" rx="38" fill="white"/>
  <circle cx="1132" cy="352" r="74" fill="#EEF0FF"/>
  <circle cx="1132" cy="334" r="42" fill="#F7D0B0"/>
  <path d="M1070 408C1070 374.863 1096.86 348 1130 348H1134C1167.14 348 1194 374.863 1194 408V476H1070V408Z" fill="#2A2AF4"/>
  <rect x="1068" y="507" width="129" height="18" rx="9" fill="#D5DCEF"/>
  <rect x="1029" y="846" width="276" height="190" rx="34" fill="#1A1A2E"/>
  <rect x="1060" y="880" width="215" height="24" rx="12" fill="white" fill-opacity="0.88"/>
  <rect x="1060" y="920" width="170" height="16" rx="8" fill="white" fill-opacity="0.42"/>
  <rect x="1060" y="955" width="203" height="16" rx="8" fill="white" fill-opacity="0.42"/>
  <rect x="136" y="804" width="772" height="258" rx="42" fill="white"/>
  <rect x="182" y="858" width="232" height="102" rx="26" fill="#FFE03D"/>
  <rect x="442" y="846" width="420" height="28" rx="14" fill="#1A1A2E"/>
  <rect x="442" y="898" width="325" height="18" rx="9" fill="#CDD4EB"/>
  <rect x="442" y="934" width="360" height="18" rx="9" fill="#CDD4EB"/>
  <rect x="442" y="970" width="290" height="18" rx="9" fill="#CDD4EB"/>
  <text x="230" y="322" fill="white" font-size="42" font-family="Arial, sans-serif" font-weight="700">你好</text>
  <text x="225" y="918" fill="#1A1A2E" font-size="34" font-family="Arial, sans-serif" font-weight="700">HSK</text>
</svg>
