<?xml version="1.0" encoding="UTF-8"?> <svg xmlns="http://www.w3.org/2000/svg" width="295" height="331" viewBox="146 -3 295 331" fill="none"><path d="M149.282 90.8261C152.727 61.8994 171.984 37.5722 200.452 21.6506C228.918 5.72952 266.55 -1.7544 306.595 3.01552C346.641 7.78545 381.461 23.8994 405.392 46.0616C429.323 68.2245 442.327 96.3944 438.881 125.321C435.435 154.248 416.178 178.574 387.711 194.496C359.245 210.417 321.613 217.901 281.568 213.131C241.522 208.361 206.702 192.247 182.771 170.085C158.841 147.922 145.836 119.753 149.282 90.8261Z" fill="#B9B6FF" stroke="#1E1E1E" stroke-width="1.3788"></path><path d="M201.658 97.0644C208.579 38.9583 255.631 -3.05531 306.597 3.01539C357.563 9.08633 393.429 60.9765 386.508 119.082C379.587 177.188 332.535 219.201 281.57 213.131C230.604 207.06 194.737 155.17 201.658 97.0644Z" fill="#B9B6FF" stroke="#1E1E1E" stroke-width="1.3788"></path><path d="M300.055 58C340.174 62.7787 375.789 72.7755 400.936 85.0545C413.513 91.1954 423.436 97.8905 429.997 104.759C436.562 111.632 439.691 118.598 438.89 125.319C438.09 132.041 433.412 138.077 425.417 143.216C417.425 148.351 406.208 152.527 392.54 155.542C365.213 161.57 328.245 162.922 288.127 158.144C248.008 153.365 212.393 143.367 187.246 131.088C174.669 124.947 164.746 118.253 158.184 111.385C151.619 104.512 148.491 97.5458 149.291 90.8243C150.092 84.1028 154.769 78.0663 162.765 72.9281C170.756 67.793 181.974 63.6161 195.641 60.6012C222.969 54.5727 259.936 53.2214 300.055 58Z" stroke="#1E1E1E" stroke-width="1.3788"></path><path d="M256.946 103.648C260.417 74.5059 267.783 48.6553 276.864 30.4228C281.406 21.3038 286.359 14.1247 291.439 9.38976C296.522 4.65216 301.658 2.4255 306.601 3.01433C311.545 3.6033 316.013 6.97391 319.841 12.7728C323.667 18.5686 326.795 26.7103 329.068 36.641C333.612 56.4964 334.7 83.3539 331.228 112.496C327.757 141.639 320.391 167.49 311.31 185.722C306.769 194.841 301.815 202.019 296.735 206.754C291.652 211.492 286.517 213.718 281.574 213.13C276.63 212.541 272.162 209.17 268.333 203.371C264.508 197.575 261.379 189.434 259.106 179.504C254.562 159.648 253.475 132.791 256.946 103.648Z" stroke="#1E1E1E" stroke-width="1.3788"></path><path d="M149.31 90.8281L438.698 125.131" stroke="#1E1E1E" stroke-width="1.3788"></path><path d="M190.974 174.226C197.334 174.441 202.629 179.342 206.085 184.654C209.541 189.966 211.882 196.064 215.89 201.008C222.551 209.271 234.734 211.179 245.225 209.504C243.888 208.509 242.761 207.257 241.909 205.824C241.42 205.06 240.798 204.346 240.151 203.649C240.004 203.849 239.849 204.044 239.683 204.229C239.438 204.494 239.139 204.703 238.806 204.842C238.473 204.981 238.113 205.045 237.752 205.032C237.533 205.014 237.322 204.941 237.14 204.818C236.952 204.633 236.821 204.399 236.761 204.143C236.701 203.887 236.715 203.618 236.802 203.369C236.931 202.86 237.201 202.394 237.299 201.879C237.465 201.024 237.078 200.468 236.774 199.822C236.202 199.07 235.669 198.29 235.181 197.481C233.826 195.212 233.277 192.551 233.624 189.93C233.961 187.701 235.161 185.693 236.964 184.341C239.035 182.844 241.487 182.869 243.938 183.384C247.614 184.163 250.212 185.605 252.59 188.519C255.09 191.574 258.945 195.628 260.943 198.438C262.549 200.699 285.586 197.508 298.797 205.024C301.676 206.138 305.767 208.074 311.69 211.208C316.255 213.619 319.931 217.545 324.625 219.68C327.254 220.876 330.141 221.52 332.635 222.968C333.366 223.33 333.973 223.9 334.381 224.606C334.573 224.962 334.64 225.374 334.569 225.773C334.497 226.171 334.293 226.534 333.989 226.802C333.334 227.274 332.433 227.072 331.66 226.845L326.403 225.336C329.597 227.098 332.478 229.378 334.927 232.083C335.423 232.629 335.925 233.439 335.509 234.046C335.32 234.292 335.051 234.464 334.749 234.532C333.058 235.047 331.286 234.132 329.797 233.175C327.945 231.984 326.174 230.671 324.497 229.243C325.374 230.752 326.586 232.041 327.561 233.476C328.535 234.911 329.35 236.598 329.209 238.34C329.212 238.606 329.121 238.865 328.952 239.071C328.794 239.21 328.597 239.297 328.388 239.322C326.684 239.634 325.097 238.408 323.89 237.162C322.272 235.498 320.845 233.656 319.637 231.672C320.807 234.561 321.996 237.586 321.751 240.69C321.755 241.104 321.627 241.508 321.384 241.843C320.716 242.598 319.453 242.052 318.742 241.34C316.467 239.051 315.869 235.666 315.719 232.384C315.49 233.301 314.818 234.148 314.3 235.089C314.191 235.337 314.029 235.559 313.827 235.739C313.626 235.918 313.387 236.052 313.129 236.132C312.783 236.163 312.436 236.081 312.141 235.898C311.846 235.714 311.619 235.438 311.493 235.114C311.255 234.461 311.114 233.777 311.076 233.083C310.537 229.292 307.632 226.146 304.213 224.422C300.794 222.698 293.887 217.852 290.07 217.601C287.002 217.386 283.991 217.146 280.989 217.032C286.469 219.907 291.819 222.913 295.768 227.594C305.413 239.139 300.413 252.922 293.157 264.228C285.583 275.981 283.464 289.667 287.643 303.383C288.831 307.29 286.331 307.861 283.371 310.658C279.772 313.995 276.036 317.168 272.163 320.178C269.522 322.233 266.586 324.301 263.24 324.374C261.86 324.469 260.495 324.03 259.429 323.147C257.125 321 258.148 317.037 260.189 314.626C262.229 312.216 265.054 310.443 266.519 307.659C268.737 303.45 267.224 298.371 266.36 293.702C263.792 279.821 269.921 263.565 279.113 252.879C263.125 263.669 253.142 282.846 253.473 302.144C253.51 304.119 253.632 306.161 252.927 308.001C252.294 309.444 251.363 310.736 250.195 311.792C246.822 315.044 242.71 317.427 238.214 318.737C233.718 320.047 228.972 320.245 224.383 319.314C223.367 319.172 222.411 318.746 221.625 318.086C220.388 316.859 220.504 314.743 221.393 313.252C222.281 311.762 223.832 310.787 225.345 309.922C229.849 307.364 234.685 304.664 239.655 303.29C233.937 285.728 239.783 264.976 253.834 252.99C255.973 251.047 257.762 248.75 259.122 246.2C261.433 242.249 260.82 238.225 258.369 235.771C254.086 231.495 249.679 228.858 245.39 224.564C235.101 227.085 219.995 225.208 210.926 219.724C201.857 214.24 194.975 203.572 192.407 193.285L186.892 198.947C186.748 199.141 186.564 199.304 186.353 199.422C186.142 199.541 185.907 199.613 185.666 199.634C184.956 199.585 184.624 198.72 184.575 198.002C184.465 196.395 184.886 194.796 185.771 193.451C184.449 194.905 183.033 196.27 181.531 197.536C181.265 197.814 180.912 197.992 180.531 198.039C179.576 198.039 179.386 196.721 179.575 195.813C180.003 193.784 180.894 191.88 182.18 190.254L176.156 195.162C175.5 195.702 174.507 196.235 173.895 195.659C173.732 195.453 173.622 195.212 173.573 194.954C173.523 194.697 173.537 194.432 173.613 194.181C174.256 190.543 177.376 187.844 180.66 186.169C179.148 186.883 177.529 187.345 175.868 187.537C174.863 187.654 173.588 187.488 173.227 186.586C172.865 185.685 173.601 184.734 174.33 184.09C178.611 180.29 184.911 178.157 190.593 178.953C190.014 178.789 189.459 178.546 188.946 178.225C188.118 177.605 187.634 176.392 188.173 175.502C188.823 174.453 188.038 175.3 189.264 175.502C188.945 174.711 190.128 174.195 190.974 174.226Z" fill="#FDFCFA"></path><path d="M246.735 191.781C247.34 191.178 248.099 190.753 248.929 190.555C249.351 190.458 249.79 190.464 250.21 190.571C250.63 190.677 251.018 190.882 251.344 191.168C251.738 191.598 251.974 192.15 252.012 192.732C252.119 193.561 251.944 194.402 251.515 195.118C251.279 195.491 250.968 195.81 250.602 196.055C250.236 196.3 249.823 196.466 249.389 196.542" stroke="#242424" stroke-width="1.55316" stroke-linecap="round" stroke-linejoin="round"></path></svg> 